Coordinates
version=1
nRows=6
nColumns=63
inDegrees=yes

Units are S.I. units (second, meters, Newtons, ...)
If the header above contains a line with 'inDegrees', this indicates whether rotational values are in degrees (yes) or radians (no).

endheader
time	pelvis_tilt	pelvis_list	pelvis_rotation	pelvis_tx	pelvis_ty	pelvis_tz	hip_flexion_r	hip_adduction_r	hip_rotation_r	knee_angle_r	knee_angle_r_beta	ankle_angle_r	subtalar_angle_r	mtp_angle_r	hip_flexion_l	hip_adduction_l	hip_rotation_l	knee_angle_l	knee_angle_l_beta	ankle_angle_l	subtalar_angle_l	mtp_angle_l	L5_S1_Flex_Ext	L5_S1_Lat_Bending	L5_S1_axial_rotation	L4_L5_Flex_Ext	L4_L5_Lat_Bending	L4_L5_axial_rotation	L3_L4_Flex_Ext	L3_L4_Lat_Bending	L3_L4_axial_rotation	L2_L3_Flex_Ext	L2_L3_Lat_Bending	L2_L3_axial_rotation	L1_L2_Flex_Ext	L1_L2_Lat_Bending	L1_L2_axial_rotation	L1_T12_Flex_Ext	L1_T12_Lat_Bending	L1_T12_axial_rotation	Abs_r3	Abs_r2	Abs_r1	Abs_t1	Abs_t2	neck_flexion	neck_bending	neck_rotation	arm_flex_r	arm_add_r	arm_rot_r	elbow_flex_r	pro_sup_r	wrist_flex_r	wrist_dev_r	arm_flex_l	arm_add_l	arm_rot_l	elbow_flex_l	pro_sup_l	wrist_flex_l	wrist_dev_l
     12.41700000	    -45.14268279	     -4.42808318	      5.02100023	     -0.25965071	      1.04214770	      0.25656018	     75.78109405	     -9.94457111	    -11.97711291	     44.81950052	      0.78224785	    -10.69488516	      2.55823674	      0.00000000	    120.34022102	     -3.80842529	      2.91200860	    110.87665222	      1.93516264	     19.44960701	     12.22216696	      0.00000000	     -0.03933392	      0.23930292	     -1.06266367	     -0.07304702	      0.31827288	     -1.12908015	     -0.06462169	      0.58184112	     -1.12908015	     -0.04495473	      0.58184112	     -0.92983072	     -0.03652548	      0.48798652	     -0.86341424	     -0.02247540	      0.37068022	     -0.79699776	     -0.28095824	      2.70704250	     -5.91021656	      0.00000000	      0.00000000	      0.00000000	      0.00000000	      0.00000000	     74.71689324	    -16.05055643	     25.22663038	     35.69071518	     33.79512371	      0.00000000	      5.00000014	     74.66411322	    -11.25541062	     26.77469079	     39.77972058	     51.53014780	      0.00000000	      5.00000014
     12.42500000	    -45.48921383	     -4.22271319	      5.08215871	     -0.26043729	      1.04409964	      0.25628262	     75.99265012	     -9.94004613	    -11.33574732	     46.63986504	      0.81401921	    -10.96630445	      0.69485810	      0.00000000	    120.67777813	     -3.50717247	      2.49132985	    108.55840353	      1.89470157	     19.61611659	     12.51119790	      0.00000000	     -0.03963431	      0.21439514	     -1.11140126	     -0.07360488	      0.28514553	     -1.18086384	     -0.06511521	      0.52128034	     -1.18086384	     -0.04529806	      0.52128034	     -0.97247611	     -0.03680442	      0.43719457	     -0.90301353	     -0.02264705	      0.33209807	     -0.83355095	     -0.28310394	      2.42528068	     -6.18128041	      0.00000000	      0.00000000	      0.00000000	      0.00000000	      0.00000000	     74.95264978	    -15.91062291	     25.45553787	     35.57064977	     33.82568989	      0.00000000	      5.00000014	     74.87478223	    -11.42809501	     26.67125283	     39.82158683	     51.52744621	      0.00000000	      5.00000014
     12.43300000	    -45.82501416	     -4.37239202	      4.68704876	     -0.26123315	      1.04588991	      0.25622636	     76.37153281	     -9.56073536	    -10.96650594	     48.84023081	      0.85242284	    -10.89699202	      0.14778238	      0.00000000	    120.87428978	     -3.35572501	      2.70944918	    106.06716560	      1.85122127	     19.56260956	     12.48879878	      0.00000000	     -0.03997665	      0.24251827	     -1.05996475	     -0.07424064	      0.32254930	     -1.12621255	     -0.06567764	      0.58965893	     -1.12621255	     -0.04568932	      0.58965893	     -0.92746916	     -0.03712232	      0.49454326	     -0.86122136	     -0.02284266	      0.37566080	     -0.79497357	     -0.28554924	      2.74341521	     -5.89520597	      0.00000000	      0.00000000	      0.00000000	      0.00000000	      0.00000000	     75.21317762	    -15.90665840	     25.49464341	     35.63000269	     33.84018676	      0.00000000	      5.00000014	     75.05378779	    -11.50115013	     26.67549114	     39.88238061	     51.52816815	      0.00000000	      5.00000014
     12.44200000	    -46.20530259	     -4.48161987	      4.26877602	     -0.26212456	      1.04770166	      0.25627029	     77.00391703	     -9.22007904	    -10.54396764	     51.38162652	      0.89677856	    -10.61897083	     -0.46556643	      0.00000000	    120.75264419	     -3.25048130	      2.92029313	    103.17472474	      1.80073865	     19.36927304	     12.48166782	      0.00000000	     -0.03730587	      0.26532115	     -1.00755513	     -0.06928074	      0.35287713	     -1.07052732	     -0.06128982	      0.64510184	     -1.07052732	     -0.04263688	      0.64510184	     -0.88161074	     -0.03464223	      0.54104289	     -0.81863854	     -0.02131658	      0.41098246	     -0.75566634	     -0.26647213	      3.00136590	     -5.60371934	      0.00000000	      0.00000000	      0.00000000	      0.00000000	      0.00000000	     75.49879060	    -15.89398554	     25.59464015	     35.72213177	     33.87285048	      0.00000000	      5.00000014	     75.25153628	    -11.59281688	     26.66670981	     39.96651903	     51.52188832	      0.00000000	      5.00000014
     12.45000000	    -46.55581343	     -4.21994244	      4.16016280	     -0.26306552	      1.04944190	      0.25629009	     77.90748810	     -9.30900745	     -9.82691130	     54.43151857	      0.95000922	    -10.10536742	     -1.63991392	      0.00000000	    120.16417272	     -3.09222577	      2.69449297	     99.82704577	      1.74231063	     19.00744163	     12.76649569	      0.00000000	     -0.03858539	      0.23777539	     -1.02549753	     -0.07165692	      0.31624127	     -1.08959112	     -0.06339193	      0.57812708	     -1.08959112	     -0.04409924	      0.57812708	     -0.89731034	     -0.03583039	      0.48487158	     -0.83321674	     -0.02204769	      0.36831408	     -0.76912315	     -0.27561155	      2.68976277	     -5.70350960	      0.00000000	      0.00000000	      0.00000000	      0.00000000	      0.00000000	     75.73131997	    -15.80005004	     26.05989370	     35.87238163	     33.97646590	      0.00000000	      5.00000014	     75.56355914	    -11.86939749	     26.77165092	     39.98862343	     51.52730127	      0.00000000	      5.00000014
     12.45800000	    -46.90285648	     -4.43770200	      3.34872429	     -0.26391715	      1.05089405	      0.25674967	     78.85969691	     -8.70549212	     -9.53462876	     57.48096631	      1.00323212	     -9.56101094	     -1.96943394	      0.00000000	    119.50528175	     -3.32207170	      3.22682656	     96.40373774	      1.68256263	     18.48381568	     12.50601572	      0.00000000	     -0.03692397	      0.28011913	     -0.88946219	     -0.06857150	      0.37255845	     -0.94505357	     -0.06066239	      0.68108166	     -0.94505357	     -0.04220040	      0.68108166	     -0.77827941	     -0.03428760	      0.57121894	     -0.72268803	     -0.02109836	      0.43390454	     -0.66709664	     -0.26374422	      3.16876367	     -4.94692184	      0.00000000	      0.00000000	      0.00000000	      0.00000000	      0.00000000	     76.03880886	    -15.84855835	     26.14439977	     36.07179162	     34.04816549	      0.00000000	      5.00000014	     75.71478194	    -11.97061530	     26.81299994	     40.19988194	     51.50402601	      0.00000000	      5.00000014
